<!-- Money-style low-opacity background (WhatsApp-ish doodle vibe)
     Color: #16a34a (Tailwind green-600-ish)
     Opacity: 0.08 (adjust to taste)
     Usage: set as an <svg> background, or export to .svg and use in CSS.
-->
<svg xmlns="http://www.w3.org/2000/svg" width="1440" height="900" viewBox="0 0 1440 900" fill="none">
  <rect width="1440" height="900" fill="transparent"/>

  <g stroke="#16a34a" stroke-width="4" stroke-linecap="round" stroke-linejoin="round" opacity="0.20">
    <!-- COIN -->
    <g transform="translate(120 120) rotate(-12)">
      <circle cx="0" cy="0" r="22"/>
      <circle cx="0" cy="0" r="14"/>
      <path d="M-4 -6h8M-4 0h8M-4 6h8"/>
    </g>

    <!-- BANKNOTE -->
    <g transform="translate(360 110) rotate(8)">
      <rect x="-44" y="-26" width="88" height="52" rx="10"/>
      <circle cx="0" cy="0" r="12"/>
      <path d="M-30 -12c6 0 10-4 10-10M30 12c-6 0-10 4-10 10"/>
      <path d="M-30 12c6 0 10 4 10 10M30 -12c-6 0-10-4-10-10"/>
    </g>

    <!-- WALLET -->
    <g transform="translate(640 120) rotate(-6)">
      <rect x="-52" y="-30" width="104" height="60" rx="14"/>
      <path d="M-52 -8h64c10 0 18 8 18 18v20"/>
      <rect x="12" y="-6" width="44" height="30" rx="10"/>
      <circle cx="44" cy="9" r="2.5"/>
    </g>

    <!-- CHART -->
    <g transform="translate(980 120) rotate(10)">
      <rect x="-56" y="-36" width="112" height="72" rx="14"/>
      <path d="M-34 14v-18M-10 14v-30M14 14v-10M38 14v-24"/>
      <path d="M-34 -2l24-12 24 18 24-26"/>
      <path d="M38 -22l0-10 10 0"/>
    </g>

    <!-- PIGGY BANK (simple) -->
    <g transform="translate(1240 140) rotate(-8)">
      <path d="M-38 10c-14 0-26-10-26-22s12-22 26-22h26c18 0 32 12 32 28 0 10-6 18-14 22"/>
      <path d="M-10 -34v-10"/>
      <circle cx="6" cy="-16" r="2.5"/>
      <path d="M22 10l10 10"/>
      <path d="M-24 10v12M0 10v12"/>
      <path d="M-58 -6l-10-10"/>
    </g>

    <!-- CREDIT CARD -->
    <g transform="translate(180 330) rotate(6)">
      <rect x="-58" y="-36" width="116" height="72" rx="14"/>
      <path d="M-58 -10h116"/>
      <path d="M-40 14h26"/>
      <path d="M-40 22h18"/>
    </g>

    <!-- RECEIPT -->
    <g transform="translate(470 340) rotate(-10)">
      <path d="M-30 -36h60v72l-10-6-10 6-10-6-10 6-10-6-10 6z"/>
      <path d="M-16 -18h32M-16 -6h32M-16 6h22"/>
    </g>

    <!-- CALCULATOR -->
    <g transform="translate(770 330) rotate(8)">
      <rect x="-34" y="-42" width="68" height="84" rx="14"/>
      <rect x="-18" y="-30" width="36" height="14" rx="6"/>
      <path d="M-16 -6h8M0 -6h8M-16 8h8M0 8h8M-16 22h8M0 22h8"/>
    </g>

    <!-- MONEY BAG -->
    <g transform="translate(1060 340) rotate(-6)">
      <path d="M-18 -40h36M-10 -40c0 10-10 12-10 20 0 6 6 10 20 10s20-4 20-10c0-8-10-10-10-20"/>
      <path d="M0 -10c-22 0-34 16-34 34 0 14 10 24 34 24s34-10 34-24c0-18-12-34-34-34z"/>
      <path d="M-8 10h16M-8 18h16"/>
    </g>

    <!-- COIN STACK -->
    <g transform="translate(1280 360) rotate(10)">
      <ellipse cx="0" cy="-18" rx="22" ry="8"/>
      <path d="M-22 -18v22c0 6 10 10 22 10s22-4 22-10v-22"/>
      <ellipse cx="0" cy="4" rx="22" ry="8"/>
      <ellipse cx="0" cy="14" rx="22" ry="8"/>
    </g>

    <!-- SECOND ROW / MORE SPREAD OUT -->

    <!-- BANKNOTE SMALL -->
    <g transform="translate(120 600) rotate(-8)">
      <rect x="-36" y="-22" width="72" height="44" rx="10"/>
      <circle cx="0" cy="0" r="10"/>
      <path d="M-22 -10c4 0 8-4 8-8M22 10c-4 0-8 4-8 8"/>
    </g>

    <!-- ARROW UP -->
    <g transform="translate(360 610) rotate(12)">
      <path d="M-40 22h80"/>
      <path d="M-28 14l18-20 18 14 18-28"/>
      <path d="M26 -20v-10h10"/>
    </g>

    <!-- PIGGY BANK SMALL -->
    <g transform="translate(620 620) rotate(-10)">
      <path d="M-28 8c-10 0-18-7-18-16s8-16 18-16h18c14 0 24 9 24 20 0 7-4 13-10 16"/>
      <circle cx="2" cy="-8" r="2"/>
      <path d="M-18 8v10M0 8v10"/>
    </g>

    <!-- WALLET SMALL -->
    <g transform="translate(900 610) rotate(6)">
      <rect x="-42" y="-24" width="84" height="48" rx="14"/>
      <path d="M-42 -6h48c8 0 14 6 14 14v16"/>
      <rect x="6" y="-4" width="36" height="24" rx="10"/>
      <circle cx="32" cy="8" r="2.2"/>
    </g>

    <!-- RECEIPT SMALL -->
    <g transform="translate(1160 610) rotate(-6)">
      <path d="M-24 -30h48v60l-8-5-8 5-8-5-8 5-8-5-8 5z"/>
      <path d="M-12 -14h24M-12 -2h24M-12 10h16"/>
    </g>

    <!-- COIN -->
    <g transform="translate(1320 700) rotate(14)">
      <circle cx="0" cy="0" r="18"/>
      <circle cx="0" cy="0" r="11"/>
      <path d="M-3 -5h6M-3 0h6M-3 5h6"/>
    </g>

    

    <!-- A FEW EXTRA, LIGHTLY PLACED -->

    <g transform="translate(220 780) rotate(8)">
      <rect x="-46" y="-28" width="92" height="56" rx="14"/>
      <path d="M-46 -6h92"/>
      <path d="M-30 14h22"/>
    </g>

    <g transform="translate(760 780) rotate(-8)">
      <rect x="-56" y="-36" width="112" height="72" rx="14"/>
      <path d="M-32 14v-18M-8 14v-28M16 14v-10M40 14v-24"/>
    </g>

    <g transform="translate(1120 780) rotate(10)">
      <path d="M0 -34v22"/>
      <path d="M-12 -18h24"/>
      <path d="M-26 6c0-12 12-22 26-22S26 -6 26 6c0 10-8 18-20 22l-6 14-6-14c-12-4-20-12-20-22z"/>
    </g>
  </g>
</svg>